<svg width="110" height="110" viewBox="0 0 110 110" fill="none" xmlns="http://www.w3.org/2000/svg">
<path opacity="0.9" d="M1.68375 3.3677V1.68385M1.68375 1.68385V0M1.68375 1.68385H3.3676M1.68375 1.68385H-0.00010252M13.4707 3.3677V1.68385M13.4707 1.68385V0M13.4707 1.68385H15.1545M13.4707 1.68385H11.7868M25.2576 3.3677V1.68385M25.2576 1.68385V0M25.2576 1.68385H26.9415M25.2576 1.68385H23.5738M37.0446 3.3677V1.68385M37.0446 1.68385V0M37.0446 1.68385H38.7284M37.0446 1.68385H35.3607M48.8315 3.3677V1.68385M48.8315 1.68385V0M48.8315 1.68385H50.5154M48.8315 1.68385H47.1477M60.6185 3.3677V1.68385M60.6185 1.68385V0M60.6185 1.68385H62.3023M60.6185 1.68385H58.9346M72.4054 3.3677V1.68385M72.4054 1.68385V0M72.4054 1.68385H74.0892M72.4054 1.68385H70.7215M84.1923 3.3677V1.68385M84.1923 1.68385V0M84.1923 1.68385H85.8762M84.1923 1.68385H82.5085M95.9793 3.3677V1.68385M95.9793 1.68385V0M95.9793 1.68385H97.6631M95.9793 1.68385H94.2954M107.766 3.3677V1.68385M107.766 1.68385V0M107.766 1.68385H109.45M107.766 1.68385H106.082M1.68375 15.1546V13.4708M1.68375 13.4708V11.7869M1.68375 13.4708H3.3676M1.68375 13.4708H-0.00010252M13.4707 15.1546V13.4708M13.4707 13.4708V11.7869M13.4707 13.4708H15.1545M13.4707 13.4708H11.7868M25.2576 15.1546V13.4708M25.2576 13.4708V11.7869M25.2576 13.4708H26.9415M25.2576 13.4708H23.5738M37.0446 15.1546V13.4708M37.0446 13.4708V11.7869M37.0446 13.4708H38.7284M37.0446 13.4708H35.3607M48.8315 15.1546V13.4708M48.8315 13.4708V11.7869M48.8315 13.4708H50.5154M48.8315 13.4708H47.1477M60.6185 15.1546V13.4708M60.6185 13.4708V11.7869M60.6185 13.4708H62.3023M60.6185 13.4708H58.9346M72.4054 15.1546V13.4708M72.4054 13.4708V11.7869M72.4054 13.4708H74.0892M72.4054 13.4708H70.7215M84.1923 15.1546V13.4708M84.1923 13.4708V11.7869M84.1923 13.4708H85.8762M84.1923 13.4708H82.5085M95.9793 15.1546V13.4708M95.9793 13.4708V11.7869M95.9793 13.4708H97.6631M95.9793 13.4708H94.2954M107.766 15.1546V13.4708M107.766 13.4708V11.7869M107.766 13.4708H109.45M107.766 13.4708H106.082M1.68375 26.9416V25.2577M1.68375 25.2577V23.5739M1.68375 25.2577H3.3676M1.68375 25.2577H-0.00010252M13.4707 26.9416V25.2577M13.4707 25.2577V23.5739M13.4707 25.2577H15.1545M13.4707 25.2577H11.7868M25.2576 26.9416V25.2577M25.2576 25.2577V23.5739M25.2576 25.2577H26.9415M25.2576 25.2577H23.5738M37.0446 26.9416V25.2577M37.0446 25.2577V23.5739M37.0446 25.2577H38.7284M37.0446 25.2577H35.3607M48.8315 26.9416V25.2577M48.8315 25.2577V23.5739M48.8315 25.2577H50.5154M48.8315 25.2577H47.1477M60.6185 26.9416V25.2577M60.6185 25.2577V23.5739M60.6185 25.2577H62.3023M60.6185 25.2577H58.9346M72.4054 26.9416V25.2577M72.4054 25.2577V23.5739M72.4054 25.2577H74.0892M72.4054 25.2577H70.7215M84.1923 26.9416V25.2577M84.1923 25.2577V23.5739M84.1923 25.2577H85.8762M84.1923 25.2577H82.5085M95.9793 26.9416V25.2577M95.9793 25.2577V23.5739M95.9793 25.2577H97.6631M95.9793 25.2577H94.2954M107.766 26.9416V25.2577M107.766 25.2577V23.5739M107.766 25.2577H109.45M107.766 25.2577H106.082M1.68375 38.7285V37.0447M1.68375 37.0447V35.3608M1.68375 37.0447H3.3676M1.68375 37.0447H-0.00010252M13.4707 38.7285V37.0447M13.4707 37.0447V35.3608M13.4707 37.0447H15.1545M13.4707 37.0447H11.7868M25.2576 38.7285V37.0447M25.2576 37.0447V35.3608M25.2576 37.0447H26.9415M25.2576 37.0447H23.5738M37.0446 38.7285V37.0447M37.0446 37.0447V35.3608M37.0446 37.0447H38.7284M37.0446 37.0447H35.3607M48.8315 38.7285V37.0447M48.8315 37.0447V35.3608M48.8315 37.0447H50.5154M48.8315 37.0447H47.1477M60.6185 38.7285V37.0447M60.6185 37.0447V35.3608M60.6185 37.0447H62.3023M60.6185 37.0447H58.9346M72.4054 38.7285V37.0447M72.4054 37.0447V35.3608M72.4054 37.0447H74.0892M72.4054 37.0447H70.7215M84.1923 38.7285V37.0447M84.1923 37.0447V35.3608M84.1923 37.0447H85.8762M84.1923 37.0447H82.5085M95.9793 38.7285V37.0447M95.9793 37.0447V35.3608M95.9793 37.0447H97.6631M95.9793 37.0447H94.2954M107.766 38.7285V37.0447M107.766 37.0447V35.3608M107.766 37.0447H109.45M107.766 37.0447H106.082M1.68375 50.5155V48.8316M1.68375 48.8316V47.1478M1.68375 48.8316H3.3676M1.68375 48.8316H-0.00010252M13.4707 50.5155V48.8316M13.4707 48.8316V47.1478M13.4707 48.8316H15.1545M13.4707 48.8316H11.7868M25.2576 50.5155V48.8316M25.2576 48.8316V47.1478M25.2576 48.8316H26.9415M25.2576 48.8316H23.5738M37.0446 50.5155V48.8316M37.0446 48.8316V47.1478M37.0446 48.8316H38.7284M37.0446 48.8316H35.3607M48.8315 50.5155V48.8316M48.8315 48.8316V47.1478M48.8315 48.8316H50.5154M48.8315 48.8316H47.1477M60.6185 50.5155V48.8316M60.6185 48.8316V47.1478M60.6185 48.8316H62.3023M60.6185 48.8316H58.9346M72.4054 50.5155V48.8316M72.4054 48.8316V47.1478M72.4054 48.8316H74.0892M72.4054 48.8316H70.7215M84.1923 50.5155V48.8316M84.1923 48.8316V47.1478M84.1923 48.8316H85.8762M84.1923 48.8316H82.5085M95.9793 50.5155V48.8316M95.9793 48.8316V47.1478M95.9793 48.8316H97.6631M95.9793 48.8316H94.2954M107.766 50.5155V48.8316M107.766 48.8316V47.1478M107.766 48.8316H109.45M107.766 48.8316H106.082M1.68375 62.3024V60.6186M1.68375 60.6186V58.9347M1.68375 60.6186H3.3676M1.68375 60.6186H-0.00010252M13.4707 62.3024V60.6186M13.4707 60.6186V58.9347M13.4707 60.6186H15.1545M13.4707 60.6186H11.7868M25.2576 62.3024V60.6186M25.2576 60.6186V58.9347M25.2576 60.6186H26.9415M25.2576 60.6186H23.5738M37.0446 62.3024V60.6186M37.0446 60.6186V58.9347M37.0446 60.6186H38.7284M37.0446 60.6186H35.3607M48.8315 62.3024V60.6186M48.8315 60.6186V58.9347M48.8315 60.6186H50.5154M48.8315 60.6186H47.1477M60.6185 62.3024V60.6186M60.6185 60.6186V58.9347M60.6185 60.6186H62.3023M60.6185 60.6186H58.9346M72.4054 62.3024V60.6186M72.4054 60.6186V58.9347M72.4054 60.6186H74.0892M72.4054 60.6186H70.7215M84.1923 62.3024V60.6186M84.1923 60.6186V58.9347M84.1923 60.6186H85.8762M84.1923 60.6186H82.5085M95.9793 62.3024V60.6186M95.9793 60.6186V58.9347M95.9793 60.6186H97.6631M95.9793 60.6186H94.2954M107.766 62.3024V60.6186M107.766 60.6186V58.9347M107.766 60.6186H109.45M107.766 60.6186H106.082M1.68375 74.0893V72.4055M1.68375 72.4055V70.7217M1.68375 72.4055H3.3676M1.68375 72.4055H-0.00010252M13.4707 74.0893V72.4055M13.4707 72.4055V70.7217M13.4707 72.4055H15.1545M13.4707 72.4055H11.7868M25.2576 74.0893V72.4055M25.2576 72.4055V70.7217M25.2576 72.4055H26.9415M25.2576 72.4055H23.5738M37.0446 74.0893V72.4055M37.0446 72.4055V70.7217M37.0446 72.4055H38.7284M37.0446 72.4055H35.3607M48.8315 74.0893V72.4055M48.8315 72.4055V70.7217M48.8315 72.4055H50.5154M48.8315 72.4055H47.1477M60.6185 74.0893V72.4055M60.6185 72.4055V70.7217M60.6185 72.4055H62.3023M60.6185 72.4055H58.9346M72.4054 74.0893V72.4055M72.4054 72.4055V70.7217M72.4054 72.4055H74.0892M72.4054 72.4055H70.7215M84.1923 74.0893V72.4055M84.1923 72.4055V70.7217M84.1923 72.4055H85.8762M84.1923 72.4055H82.5085M95.9793 74.0893V72.4055M95.9793 72.4055V70.7217M95.9793 72.4055H97.6631M95.9793 72.4055H94.2954M107.766 74.0893V72.4055M107.766 72.4055V70.7217M107.766 72.4055H109.45M107.766 72.4055H106.082M1.68375 85.8763V84.1924M1.68375 84.1924V82.5086M1.68375 84.1924H3.3676M1.68375 84.1924H-0.00010252M13.4707 85.8763V84.1924M13.4707 84.1924V82.5086M13.4707 84.1924H15.1545M13.4707 84.1924H11.7868M25.2576 85.8763V84.1924M25.2576 84.1924V82.5086M25.2576 84.1924H26.9415M25.2576 84.1924H23.5738M37.0446 85.8763V84.1924M37.0446 84.1924V82.5086M37.0446 84.1924H38.7284M37.0446 84.1924H35.3607M48.8315 85.8763V84.1924M48.8315 84.1924V82.5086M48.8315 84.1924H50.5154M48.8315 84.1924H47.1477M60.6185 85.8763V84.1924M60.6185 84.1924V82.5086M60.6185 84.1924H62.3023M60.6185 84.1924H58.9346M72.4054 85.8763V84.1924M72.4054 84.1924V82.5086M72.4054 84.1924H74.0892M72.4054 84.1924H70.7215M84.1923 85.8763V84.1924M84.1923 84.1924V82.5086M84.1923 84.1924H85.8762M84.1923 84.1924H82.5085M95.9793 85.8763V84.1924M95.9793 84.1924V82.5086M95.9793 84.1924H97.6631M95.9793 84.1924H94.2954M107.766 85.8763V84.1924M107.766 84.1924V82.5086M107.766 84.1924H109.45M107.766 84.1924H106.082M1.68375 97.6632V95.9794M1.68375 95.9794V94.2955M1.68375 95.9794H3.3676M1.68375 95.9794H-0.00010252M13.4707 97.6632V95.9794M13.4707 95.9794V94.2955M13.4707 95.9794H15.1545M13.4707 95.9794H11.7868M25.2576 97.6632V95.9794M25.2576 95.9794V94.2955M25.2576 95.9794H26.9415M25.2576 95.9794H23.5738M37.0446 97.6632V95.9794M37.0446 95.9794V94.2955M37.0446 95.9794H38.7284M37.0446 95.9794H35.3607M48.8315 97.6632V95.9794M48.8315 95.9794V94.2955M48.8315 95.9794H50.5154M48.8315 95.9794H47.1477M60.6185 97.6632V95.9794M60.6185 95.9794V94.2955M60.6185 95.9794H62.3023M60.6185 95.9794H58.9346M72.4054 97.6632V95.9794M72.4054 95.9794V94.2955M72.4054 95.9794H74.0892M72.4054 95.9794H70.7215M84.1923 97.6632V95.9794M84.1923 95.9794V94.2955M84.1923 95.9794H85.8762M84.1923 95.9794H82.5085M95.9793 97.6632V95.9794M95.9793 95.9794V94.2955M95.9793 95.9794H97.6631M95.9793 95.9794H94.2954M107.766 97.6632V95.9794M107.766 95.9794V94.2955M107.766 95.9794H109.45M107.766 95.9794H106.082M1.68375 109.45V107.766M1.68375 107.766V106.082M1.68375 107.766H3.3676M1.68375 107.766H-0.00010252M13.4707 109.45V107.766M13.4707 107.766V106.082M13.4707 107.766H15.1545M13.4707 107.766H11.7868M25.2576 109.45V107.766M25.2576 107.766V106.082M25.2576 107.766H26.9415M25.2576 107.766H23.5738M37.0446 109.45V107.766M37.0446 107.766V106.082M37.0446 107.766H38.7284M37.0446 107.766H35.3607M48.8315 109.45V107.766M48.8315 107.766V106.082M48.8315 107.766H50.5154M48.8315 107.766H47.1477M60.6185 109.45V107.766M60.6185 107.766V106.082M60.6185 107.766H62.3023M60.6185 107.766H58.9346M72.4054 109.45V107.766M72.4054 107.766V106.082M72.4054 107.766H74.0892M72.4054 107.766H70.7215M84.1923 109.45V107.766M84.1923 107.766V106.082M84.1923 107.766H85.8762M84.1923 107.766H82.5085M95.9793 109.45V107.766M95.9793 107.766V106.082M95.9793 107.766H97.6631M95.9793 107.766H94.2954M107.766 109.45V107.766M107.766 107.766V106.082M107.766 107.766H109.45M107.766 107.766H106.082" stroke="#F55529"/>
</svg>
